<?xml version="1.0" encoding="utf-8"?>
<!-- Generator: Adobe Illustrator 25.4.1, SVG Export Plug-In . SVG Version: 6.00 Build 0)  -->
<svg version="1.1" id="Layer_1" xmlns="http://www.w3.org/2000/svg" xmlns:xlink="http://www.w3.org/1999/xlink" x="0px" y="0px" viewBox="0 0 409.97 575.86" xml:space="preserve">
<path d="M409.98,549.64c-9.75-40.31-35.48-109.19-100.97-144.97c19.73-30.52-12.68-47.94-49.43-52.83l4.14,36.61
	c0,0,1.6,11.71-5.32,16.29c-8.85,4.61-26.4,8.49-51.3,8.03l-25.35-8.95l-12.71-9.49l-0.75-5.88l3.47-36.61l-40.22,8.23L108.5,376.6
	l-4.37,19.31l10.58,19.15c0,0-77.77,38.81-114.72,133.56v27.25h410V549.64z"/>
<path class="st0" d="M172.57,351.69"/>
<path class="st1" d="M200.56,450.17c-0.1,0-0.2-0.01-0.29-0.03c-83.06-15.86-98.92-41.03-97.6-59.35
	c2.64-36.58,67.08-40.49,69.82-40.64c0.97-0.09,1.57,0.6,1.62,1.45c0.05,0.85-0.6,1.57-1.45,1.62c-0.65,0.04-64.48,3.9-66.92,37.79
	c-1.23,17.07,14.27,40.67,95.11,56.1c0.83,0.16,1.38,0.97,1.22,1.8C201.93,449.66,201.28,450.17,200.56,450.17z"/>
<path class="st1" d="M230.01,452.74c-0.63,0-1.22-0.39-1.45-1.02c-0.29-0.8,0.13-1.68,0.93-1.96c0.82-0.29,82.32-29.59,85.11-60.8
	c0.53-5.93-1.2-11.3-5.15-15.98c-14-16.58-51.14-19.73-51.52-19.76c-0.84-0.07-1.48-0.81-1.41-1.65c0.07-0.85,0.82-1.47,1.65-1.41
	c1.58,0.13,38.79,3.27,53.62,20.83c4.5,5.33,6.47,11.46,5.86,18.24c-2.97,33.15-83.71,62.2-87.15,63.42
	C230.36,452.71,230.19,452.74,230.01,452.74z"/>
<path class="st1" d="M173.48,400.65c-0.34,0-0.68-0.11-0.97-0.34c-0.2-0.16-19.93-15.88-41.05-11.71c-0.85,0.17-1.64-0.37-1.81-1.21
	c-0.17-0.83,0.38-1.64,1.21-1.81c22.57-4.47,42.73,11.65,43.58,12.34c0.66,0.53,0.76,1.5,0.23,2.16
	C174.37,400.45,173.93,400.65,173.48,400.65z"/>
<path class="st1" d="M262.35,404.29c-0.47,0-0.93-0.21-1.23-0.62c-0.51-0.68-0.36-1.64,0.32-2.15c0.81-0.6,20.1-14.76,36.23-13.41
	c0.84,0.07,1.47,0.81,1.4,1.66c-0.07,0.85-0.83,1.5-1.66,1.4c-14.91-1.22-33.96,12.68-34.14,12.82
	C262.99,404.19,262.67,404.29,262.35,404.29z"/>
<path class="st1" d="M186.92,538.32c-0.09,0-0.18-0.01-0.27-0.02c-0.83-0.15-1.39-0.94-1.25-1.78l13.63-77.27
	c0.15-0.84,0.96-1.4,1.78-1.25c0.83,0.15,1.39,0.94,1.25,1.78l-13.63,77.27C188.3,537.79,187.65,538.32,186.92,538.32z"/>
<path class="st1" d="M234.88,538.32c-0.75,0-1.41-0.56-1.52-1.32l-10.52-74.8c-0.12-0.84,0.47-1.62,1.31-1.74
	c0.82-0.13,1.62,0.47,1.73,1.31l10.53,74.8c0.12,0.84-0.47,1.62-1.31,1.74C235.02,538.31,234.95,538.32,234.88,538.32z"/>
<path d="M172.57,362.19c0,0,71.83,7.95,82.55-36.77v-7.15c0,0-48.02,12.25-78.06-1.66L172.57,362.19z"/>
<path d="M221.49,415.4c-11.15,0-22.23-1.93-32.33-5.67c-6.68-2.47-12.29-5.65-16.68-9.46l-0.46-0.38c-3.03-2.47-4.64-4.11-4.51-5.69
	c0.04-0.52,6.6-79.75,6.6-79.75l3.06,0.25c-5.57,67.35-6.44,77.86-6.58,79.56c0.2,0.4,0.97,1.28,3.38,3.25l0.52,0.43
	c4.11,3.56,9.41,6.56,15.74,8.9c11.45,4.23,24.2,6.07,36.84,5.31c13.64-0.81,24.89-5.71,35.01-10.99l-9.48-84.36l3.06-0.34
	l9.71,86.45l-0.93,0.49c-10.67,5.63-22.55,10.95-37.19,11.83C225.33,415.34,223.41,415.4,221.49,415.4z"/>
<path d="M119.02,149.44c-3.37,16.94-4.37,34.28-3.38,51.46c1.01,17.16,3.9,34.28,9.52,50.49c5.64,16.13,13.96,31.53,25.91,43.72
	c11.86,12.21,27.41,20.64,44.08,24.02c16.63,3.28,34.23,3.39,50.59-1.14c8.17-2.3,15.98-5.87,22.98-10.66
	c7.04-4.75,13.17-10.76,18.46-17.43c10.59-13.41,17.42-29.54,21.82-46.11c4.47-16.61,6.58-33.84,7.14-51.09
	c0.18,17.26-1.56,34.61-5.6,51.48c-4.15,16.79-10.76,33.29-21.38,47.25c-10.52,13.99-25.7,24.57-42.64,29.31
	c-8.44,2.44-17.2,3.57-25.94,3.75c-8.73,0.12-17.5-0.56-26.07-2.44c-17.17-3.57-33.26-12.39-45.41-25.04
	c-12.28-12.59-20.64-28.43-26.06-44.91c-5.44-16.53-8.15-33.84-8.81-51.14C113.71,183.66,115.02,166.25,119.02,149.44z"/>
<g>
	<g>
		<path d="M314.92,214.66c2.63-4.39,6.1-8.31,10.22-11.51c4.14-3.11,9.35-5.34,14.86-5c2.73,0.12,5.41,0.94,7.81,2.18
			c2.4,1.17,4.73,3,6.33,5.27c3.29,4.59,4.06,10.35,3.55,15.64c-1.18,10.67-7.66,20.53-16.94,25.69c-4.59,2.65-9.81,4.01-14.98,4.39
			c-5.2,0.28-10.38-0.4-15.27-1.92c5.04,0.84,10.16,1.19,15.13,0.43c4.95-0.66,9.79-2.21,13.92-4.92
			c8.31-5.23,14.09-14.32,15.1-23.98c0.51-4.77-0.2-9.81-2.87-13.64c-1.31-1.94-3.07-3.42-5.21-4.56c-2.11-1.14-4.38-1.95-6.75-2.2
			c-4.76-0.58-9.66,1.13-13.8,3.88C321.76,207.05,318.11,210.68,314.92,214.66z"/>
	</g>
	<g>
		<path d="M312.09,233.69c1.39-3.1,3.41-5.88,5.7-8.4c2.29-2.53,4.96-4.73,7.85-6.59c2.92-1.84,6.18-3.18,9.54-3.95
			c3.37-0.82,6.91-0.72,10.2-0.04c-3.35,0.61-6.52,1.17-9.53,2.35c-2.98,1.17-5.89,2.5-8.59,4.26
			C321.81,224.71,316.93,229,312.09,233.69z"/>
	</g>
</g>
<g>
	<g>
		<path d="M115.32,197.72c-3.24-3.9-6.96-7.42-11.27-9.92c-4.21-2.57-9.15-4-13.86-3.21c-4.61,0.88-9.26,3.23-11.69,7.11
			c-2.56,3.88-3.23,8.89-2.64,13.63c1.1,9.6,6.9,18.59,15.2,23.75c8.35,5.27,18.97,6.2,28.91,4.4c-4.86,1.5-10.01,2.19-15.19,1.92
			c-5.15-0.37-10.34-1.69-14.92-4.31c-9.26-5.08-15.78-14.82-17.06-25.42c-0.61-5.26,0.13-10.96,3.25-15.61
			c1.54-2.29,3.77-4.18,6.15-5.42c2.35-1.28,4.97-2.16,7.66-2.44c5.45-0.59,10.76,1.36,15,4.3
			C109.09,189.57,112.64,193.39,115.32,197.72z"/>
	</g>
	<g>
		<path d="M82.62,199.27c3.55-0.85,7.31-0.79,10.94-0.14c3.65,0.62,7.2,1.94,10.43,3.82c3.19,1.92,6.18,4.27,8.46,7.2
			c2.42,2.81,4.13,6.14,5.36,9.54c-2.36-2.79-4.52-5.56-7.11-7.9c-2.48-2.43-5.29-4.46-8.25-6.18
			C96.53,202.1,89.78,200.15,82.62,199.27z"/>
	</g>
</g>
<path class="st1" d="M314.92,214.66l0.72-26.15c0,0-25.07-5.26-24.69-49.53c0,0-23.56-29.9-46.47-29.9
	c-22.92,0-20.24,26.45-20.24,26.45s-9.44-9.58-8.93-20.7c0,0-26.71-13.8-49.71,8.05c0,0-4.61,44.01-49.84,50.35l-1.15,23.5
	l-5.92-7.15l-8.93-4.87c-9.84-43.36,14.96-123.72,96.56-125.59c97.61-2.24,104.97,62.48,104.97,62.48c51.8,0,20.1,85.46,20.1,85.46
	L314.92,214.66z"/>
<g>
	<g>
		<ellipse cx="176.41" cy="212.07" rx="5.72" ry="7.62"/>
	</g>
	<g>
		<ellipse cx="250.32" cy="214.7" rx="5.72" ry="7.62"/>
	</g>
	<g>
		<path d="M213.63,209.02c0.46,4.19-0.21,8.55-1.67,12.58c-1.4,4.05-3.62,7.83-6.05,11.24c-2.38,3.3-4.59,6.72-3.94,10.31
			c0.63,3.54,3.61,7.01,7.77,7.77c-4.26,0.49-8.84-2.65-10.1-7.22c-0.74-2.3-0.32-4.84,0.49-6.94c0.85-2.13,2.09-3.95,3.27-5.68
			C208.24,224.45,212.09,217.31,213.63,209.02z"/>
	</g>
	<g>
		<path d="M184.4,247.51c1.24,3.3,2.75,6.46,4.65,9.37c1.82,2.94,3.99,5.64,6.53,7.87c2.54,2.21,5.35,4.11,8.52,5.13
			c0.76,0.33,1.55,0.57,2.37,0.72c0.81,0.17,1.6,0.42,2.42,0.53c1.66,0.09,3.31,0.42,4.96,0.2c6.66-0.11,12.86-3.45,17.73-8.17
			c2.5-2.32,4.62-5.08,6.54-7.97c1.98-2.86,3.67-5.93,5.17-9.12c-1.84,6.81-5.17,13.32-10.01,18.73c-2.43,2.68-5.26,5.1-8.59,6.78
			c-3.31,1.6-6.97,2.8-10.71,2.82c-7.4,0.43-15.04-2.58-20.02-7.96C188.85,261.18,185.7,254.44,184.4,247.51z"/>
	</g>
	<g>
		<path d="M155.95,186.32l26.18-7.98C182.13,178.34,170.49,166.47,155.95,186.32z"/>
	</g>
	<g>
		<path d="M260.24,193.13l-19.85-9.42C240.39,183.71,251.03,172.25,260.24,193.13z"/>
	</g>
</g>
<g>
	<g>
		<path d="M199.65,228.85h-62.59v-41.49h62.59V228.85z M139.37,226.55h57.98v-36.88h-57.98V226.55z"/>
	</g>
	<g>
		<path d="M285.79,230.19H223.2V188.7h62.59V230.19z M225.51,227.89h57.98v-36.88h-57.98V227.89z"/>
	</g>
	<g>
		<path d="M223.23,210.5c-9.1-9.67-23.8-1.16-23.95-1.07l-1.57-2.65c0.17-0.1,16.97-9.83,27.76,1.61L223.23,210.5z"/>
	</g>
	<g>
		<rect x="123.41" y="184.05" transform="matrix(0.6334 -0.7739 0.7739 0.6334 -109.8926 170.4554)" width="3.07" height="34.31"/>
	</g>
	<g>
		<rect x="284.04" y="206.49" transform="matrix(0.9317 -0.3633 0.3633 0.9317 -54.8886 124.2267)" width="37.49" height="3.07"/>
	</g>
</g>
</svg>
