<?xml version="1.0" encoding="utf-8"?>
<!-- Generator: Adobe Illustrator 25.4.1, SVG Export Plug-In . SVG Version: 6.00 Build 0)  -->
<svg version="1.1" id="Layer_1" xmlns="http://www.w3.org/2000/svg" xmlns:xlink="http://www.w3.org/1999/xlink" x="0px" y="0px" viewBox="0 0 409.97 575.86">
<path d="M173,363.38c0,0,71.83,7.95,82.55-36.77v-7.15c0,0-48.02,12.25-78.06-1.66L173,363.38z"/>
<path d="M125.63,255.15c6.86,18.67,17.4,36.34,33,48.49c15.41,12.42,35.19,18.02,54.82,19c19.62,1.08,39.96-2.94,56.13-14.45
	c8.07-5.68,14.92-13,20.63-21.1c5.71-8.13,10.18-17.11,13.87-26.38c-3.2,9.45-7.42,18.61-12.89,27.04
	c-5.43,8.44-12.32,16.03-20.46,22.04c-8.12,6.03-17.5,10.37-27.31,12.87c-9.83,2.5-20.03,3.22-30.1,2.8
	c-10.06-0.45-20.19-1.88-29.81-5.17c-9.61-3.24-18.69-8.16-26.55-14.57c-7.88-6.4-14.37-14.37-19.59-22.96
	C132.21,274.11,128.38,264.74,125.63,255.15z"/>
<path class="st0" d="M173,352.88"/>
<g>
	<path d="M0,575.86l0.41-1.87c0.87-4.02,4.47-14.18,6.39-19.64l0.56-1.57c0.8-2.36,1.68-4.7,2.57-7.05
		c2.27-6.06,4.39-11.4,6.46-16.33c5.81-13.79,11.81-25.91,18.35-37.04c4.09-7.07,8.56-13.92,13.27-20.37
		c7.71-10.52,16.28-20.21,25.46-28.8c2.97-2.79,6.06-5.51,9.45-8.33c1.03-0.88,2.08-1.73,3.16-2.58
		c23.46-18.98,51.38-34.17,83.01-45.12l5.45-71.5l3.07,0.23l-5.6,73.51l-0.96,0.33c-31.68,10.87-59.62,25.99-83.05,44.95
		c-1.07,0.84-2.08,1.66-3.1,2.53c-3.35,2.79-6.39,5.48-9.32,8.22c-9.05,8.47-17.49,18.01-25.08,28.38
		c-4.65,6.36-9.06,13.12-13.1,20.1c-6.48,11.02-12.42,23.02-18.17,36.69c-2.06,4.9-4.16,10.2-6.42,16.22
		c-0.87,2.31-1.74,4.62-2.54,6.96l-0.56,1.59c-1.53,4.34-4.5,12.74-5.81,17.4l402.97-1.01c-0.08-2.81-0.4-9.34-1.59-18.27
		c-1.12-8.04-2.56-15.6-4.43-23.12c-3.06-12.68-7.21-24.99-12.34-36.61c-3.24-7.28-6.61-13.85-10.29-20.08
		c-6.4-10.98-13.98-21.24-22.52-30.5c-1.84-2.03-3.79-4.06-5.82-6.05c-23.25-22.95-52.98-38.88-88.36-47.36l-1.06-0.26l-7.42-71.54
		l3.06-0.32l7.19,69.38c35.48,8.67,65.33,24.79,88.74,47.91c2.06,2.02,4.06,4.1,5.93,6.16c8.69,9.42,16.4,19.86,22.91,31.02
		c3.73,6.33,7.15,13,10.44,20.39c5.2,11.79,9.41,24.28,12.52,37.12c1.89,7.62,3.36,15.29,4.49,23.44
		c1.63,12.27,1.65,19.9,1.65,20.22v1.53l-1.53,0L0,575.86z"/>
</g>
<g>
	<g>
		<path d="M182.56,213.26c0,4.21-2.56,7.62-5.72,7.62c-3.16,0-5.72-3.41-5.72-7.62c0-4.21,2.56-7.62,5.72-7.62
			C180,205.63,182.56,209.05,182.56,213.26z"/>
	</g>
	<g>
		<ellipse cx="250.75" cy="215.89" rx="5.72" ry="7.62"/>
	</g>
	<g>
		<path d="M214.07,210.21c0.46,4.19-0.21,8.55-1.67,12.58c-1.4,4.05-3.62,7.83-6.05,11.24c-2.38,3.3-4.59,6.72-3.94,10.31
			c0.63,3.54,3.61,7.01,7.77,7.77c-4.26,0.49-8.84-2.65-10.1-7.22c-0.74-2.3-0.32-4.84,0.49-6.94c0.85-2.13,2.09-3.95,3.27-5.68
			C208.67,225.64,212.52,218.5,214.07,210.21z"/>
	</g>
	<g>
		<path d="M184.83,248.7c1.24,3.3,2.75,6.46,4.65,9.37c1.82,2.94,3.99,5.64,6.53,7.87c2.54,2.21,5.35,4.11,8.52,5.13
			c0.76,0.33,1.55,0.57,2.37,0.72c0.81,0.17,1.6,0.42,2.42,0.53c1.66,0.09,3.31,0.42,4.96,0.2c6.66-0.11,12.86-3.45,17.73-8.17
			c2.5-2.32,4.62-5.08,6.54-7.97c1.98-2.86,3.67-5.93,5.17-9.12c-1.84,6.81-5.16,13.32-10.01,18.73c-2.43,2.68-5.26,5.1-8.59,6.78
			c-3.31,1.6-6.97,2.8-10.71,2.82c-7.39,0.43-15.04-2.58-20.02-7.96C189.29,262.37,186.13,255.63,184.83,248.7z"/>
	</g>
	<g>
		<path d="M154.4,195.23l1.36-1.86c5.42-7.41,11.09-11.37,16.87-11.79c6.33-0.44,10.31,3.55,10.48,3.72l0.89,0.9L154.4,195.23z
			 M173.6,183.08c-0.29,0-0.59,0.01-0.89,0.03c-4.8,0.36-9.59,3.47-14.26,9.27l22.51-6.87C179.61,184.54,177.01,183.08,173.6,183.08
			z"/>
	</g>
	<g>
		<path d="M263.13,201.74l-22.67-10.75l0.71-0.77c0.16-0.17,3.9-4.13,9.03-3.27c4.59,0.77,8.65,5.11,12.09,12.89L263.13,201.74z
			 M243.11,190.55l16.88,8c-2.99-6.06-6.36-9.45-10.03-10.07C246.91,187.96,244.36,189.56,243.11,190.55z"/>
	</g>
</g>
<g>
	<g>
		<path d="M323.5,206.66c3.11-2.91,6.85-5.28,11.12-6.48c4.28-1.15,9.02-0.63,13.1,1.24c4.14,1.75,7.64,5.5,9.14,9.81
			c1.6,4.31,1.7,8.96,0.98,13.35c-1.57,8.8-6.76,16.8-14.03,21.82c-3.66,2.46-7.77,4.2-12.02,5.13c-4.27,0.84-8.63,0.96-12.85,0.3
			c8.51,0.07,16.96-2.3,23.48-7.34c6.41-5.08,11.04-12.44,12.4-20.44c0.71-3.97,0.6-8.11-0.68-11.84c-1.21-3.81-3.89-6.78-7.45-8.69
			c-3.54-1.91-7.68-2.65-11.73-1.89C330.85,202.28,327.02,204.29,323.5,206.66z"/>
	</g>
	<g>
		<path d="M323.5,223.5c2.47-3.39,6.05-5.79,9.97-7.25c3.94-1.39,8.38-1.79,12.34-0.36c-4.06,1.02-7.69,1.92-11.3,3.25
			C330.88,220.4,327.43,222.06,323.5,223.5z"/>
	</g>
</g>
<g>
	<g>
		<path d="M106.38,190.28c-3.37-2.31-6.99-4.42-10.91-4.9c-3.88-0.65-7.78,0.49-11.12,2.47c-3.43,1.87-5.9,4.79-7.11,8.42
			c-1.26,3.58-1.41,7.55-0.81,11.38c1.17,7.72,5.39,14.91,11.33,20.09c6.03,5.15,13.99,7.92,22.18,8.32
			c-4.09,0.43-8.28,0.05-12.34-0.98c-4.04-1.11-7.9-2.99-11.3-5.52c-6.78-5.12-11.54-12.93-12.9-21.43
			c-0.65-4.25-0.44-8.71,1.07-12.87c1.51-4.12,4.77-7.81,8.73-9.57c3.8-1.91,8.34-2.88,12.57-1.85
			C99.96,184.92,103.46,187.42,106.38,190.28z"/>
	</g>
	<g>
		<path d="M83.05,200.46c2.06-0.79,4.26-1.01,6.42-0.97c2.18,0.02,4.34,0.39,6.43,0.99c4.16,1.23,8.11,3.52,10.83,6.94
			c-2.1-0.66-3.98-1.47-5.92-2.13c-1.92-0.69-3.83-1.32-5.76-1.87C91.17,202.26,87.27,201.42,83.05,200.46z"/>
	</g>
</g>
<g>
	<g>
		<path class="st1" d="M322.11,177.98c0,0-5.83-47.82-35.4-79.06c-3.69-3.9-7.44-7.4-11.25-10.53c7.78-2.53,12.37-10.21,15.5-17.23
			c11.42-25.64,3.85-54.94-23.32-65.86c-21.93-8.82-56.16-8.34-69.26,14.92c-8.49,15.07-3.55,33.69,5.21,47.51
			c-6.78,0.66-13.77,1.82-21.02,3.49c-41.23,9.48-63.46,57.98-66.98,70.21c-2.08,7.21-4.63,19.27-6.38,27.99l-0.35-0.03
			c-0.73,3.41-1.29,6.93-1.7,10.55c0,0,0,0.01,0,0.01h0c-6.27,55.38,23.33,132.02,23.33,132.02c-6.21-49.12-2.62-108.23-0.83-130.99
			c8.04-0.13,17.97-0.72,29.44-2.29c2.45-0.34,8.93-41.49,11.48-41.88c2.41,3.77,1.3,35.78,0.55,41.11
			c12.35-0.34,25.82,1.35,41.52,0.3c2.01-0.13,5.13-12.98,6.14-19.43c2.79,6.89,4.12,14,5.01,18.75c21.21-0.66,39.04,2.21,57.68-0.2
			c1.9-11.79,0.37-26.03,3.59-32.31c3.06,2.41,5.73,15.96,8.45,32.29c0.79,0,8.76,1.21,10.57,1.21
			c2.42,16.43-1.28,95.09-2.97,143.43C301.13,321.94,333.84,244.86,322.11,177.98z"/>
	</g>
</g>
<g>
	<path d="M203.58,67.72c6.34-0.63,12.75-0.49,19.11,0.07c6.36,0.58,12.67,1.76,18.85,3.38c6.18,1.64,12.2,3.92,17.92,6.76l4.25,2.22
		l4.06,2.55l2.01,1.3l1.9,1.46l3.78,2.93l-3.93-2.71l-1.95-1.36l-2.06-1.19l-4.11-2.41l-4.28-2.08c-0.72-0.34-1.41-0.72-2.15-1.02
		l-2.2-0.9c-1.47-0.58-2.91-1.26-4.42-1.76l-4.51-1.52c-1.5-0.51-3.05-0.86-4.57-1.3c-6.11-1.68-12.37-2.84-18.67-3.58
		c-1.58-0.16-3.16-0.34-4.74-0.47c-1.58-0.09-3.17-0.24-4.76-0.29C209.94,67.61,206.76,67.6,203.58,67.72z"/>
</g>
<path d="M409.62,575.86v-6.8c-1.24-6.14-2.32-11.95-2.83-15.77c-0.91-6.59-2.29-14.52-4.46-23.29
	c-2.71-11.21-6.67-23.82-12.43-36.86c-2.97-6.67-6.37-13.46-10.37-20.24c-6.14-10.52-13.65-20.93-22.72-30.76
	c-135.13,53.4-232.59,12.58-269.8-8.65c-1.07,0.84-2.1,1.68-3.13,2.55c-3.2,2.67-6.33,5.41-9.38,8.27
	c-9.49,8.88-17.84,18.45-25.27,28.59c-4.76,6.52-9.15,13.26-13.19,20.24c-6.9,11.74-12.88,24.09-18.26,36.86
	c-2.25,5.34-4.38,10.79-6.44,16.28c-0.88,2.33-1.75,4.65-2.55,7.01c-0.76,2.17-4.21,12.46-7.52,22.57H409.62z"/>
</svg>
